<?xml version="1.0" encoding="utf-8"?>
<!-- Generator: Adobe Illustrator 16.0.0, SVG Export Plug-In . SVG Version: 6.00 Build 0)  -->
<!DOCTYPE svg PUBLIC "-//W3C//DTD SVG 1.1//EN" "http://www.w3.org/Graphics/SVG/1.1/DTD/svg11.dtd">
<svg version="1.1" id="Capa_1" xmlns="http://www.w3.org/2000/svg" xmlns:xlink="http://www.w3.org/1999/xlink" x="0px" y="0px"
	 width="23.303px" height="23.305px" viewBox="0 0 23.303 23.305" enable-background="new 0 0 23.303 23.305" xml:space="preserve">
<g>
	<circle fill="#FAB438" cx="11.651" cy="1.805" r="1.805"/>
	<circle fill="#FAB438" cx="11.651" cy="21.498" r="1.805"/>
	<circle fill="#FAB438" cx="21.498" cy="11.652" r="1.806"/>
	<circle fill="#FAB438" cx="1.806" cy="11.652" r="1.806"/>
	<path fill="#FAB438" d="M16.969,16.969l-0.434-1.489l-0.359,0.355l-1.745-1.745c0.512-0.599,0.833-1.356,0.874-2.195h2.506v0.504
		l1.362-0.747l-1.362-0.746v0.504h-2.519c-0.068-0.82-0.399-1.562-0.919-2.14l1.803-1.803l0.359,0.358l0.434-1.492l-1.491,0.435
		l0.356,0.357l-1.81,1.809c-0.583-0.499-1.317-0.812-2.132-0.868V5.493h0.505L11.65,4.13l-0.746,1.363h0.507v2.571
		c-0.814,0.055-1.552,0.369-2.135,0.868L7.467,7.125l0.358-0.357L6.334,6.333l0.435,1.492l0.358-0.358l1.801,1.801
		c-0.52,0.578-0.852,1.319-0.92,2.141H5.493v-0.505l-1.362,0.747l1.362,0.747v-0.504h2.501c0.042,0.839,0.362,1.598,0.875,2.195
		l-1.745,1.745l-0.358-0.355L6.334,16.97l1.491-0.434l-0.358-0.358l1.739-1.74c0.594,0.533,1.356,0.869,2.203,0.925v2.448h-0.507
		l0.746,1.361l0.749-1.361h-0.505v-2.448c0.846-0.057,1.608-0.394,2.201-0.926l1.741,1.741l-0.358,0.357L16.969,16.969z"/>
	<circle fill="#FAB438" cx="18.613" cy="4.689" r="1.805"/>
	<circle fill="#FAB438" cx="4.689" cy="18.614" r="1.805"/>
	<circle fill="#FAB438" cx="18.613" cy="18.614" r="1.805"/>
	<circle fill="#FAB438" cx="4.688" cy="4.689" r="1.806"/>
</g>
</svg>
